<svg width="90" height="32" viewBox="0 0 90 32" fill="none" xmlns="http://www.w3.org/2000/svg">
<path d="M10.706 30.976C9.63933 30.976 8.73267 30.7627 7.986 30.336C7.26067 29.9307 6.69533 29.3867 6.29 28.704C5.906 28.0213 5.714 27.2853 5.714 26.496C5.714 26.048 5.76733 25.5787 5.874 25.088C6.002 24.6187 6.14067 24.2133 6.29 23.872C5.35133 23.7013 4.47667 23.3067 3.666 22.688C2.85533 22.048 2.194 21.2053 1.682 20.16C1.17 19.1147 0.914 17.9093 0.914 16.544C0.914 15.2213 1.138 14.0053 1.586 12.896C2.05533 11.7653 2.706 10.784 3.538 9.952C4.37 9.12 5.34067 8.46933 6.45 8C7.58067 7.53067 8.80733 7.296 10.13 7.296C11.858 7.296 13.3087 7.62667 14.482 8.288C15.6553 8.928 16.5513 9.824 17.17 10.976C17.7887 12.128 18.098 13.4613 18.098 14.976C18.098 15.2747 18.0767 15.584 18.034 15.904C18.0127 16.2027 17.9807 16.512 17.938 16.832L16.594 25.28C16.402 26.496 16.0393 27.5307 15.506 28.384C14.9727 29.2373 14.3007 29.8773 13.49 30.304C12.6793 30.752 11.7513 30.976 10.706 30.976ZM10.738 27.872C11.3993 27.872 11.89 27.648 12.21 27.2C12.5513 26.7733 12.7753 26.1973 12.882 25.472L13.81 19.616C13.426 19.9147 13.0207 20.2453 12.594 20.608C12.1673 20.9493 11.7513 21.3333 11.346 21.76C10.962 22.1653 10.61 22.6027 10.29 23.072C9.97 23.52 9.70333 23.9893 9.49 24.48C9.298 24.9707 9.202 25.472 9.202 25.984C9.202 26.5173 9.31933 26.9653 9.554 27.328C9.81 27.6907 10.2047 27.872 10.738 27.872ZM8.082 20.96C8.722 20.192 9.54333 19.4347 10.546 18.688C11.57 17.92 12.818 17.216 14.29 16.576L14.418 15.744C14.4393 15.552 14.45 15.3813 14.45 15.232C14.4713 15.0613 14.482 14.8907 14.482 14.72C14.482 13.824 14.3007 13.056 13.938 12.416C13.5753 11.776 13.0527 11.2853 12.37 10.944C11.7087 10.6027 10.9193 10.432 10.002 10.432C8.95667 10.432 8.02867 10.6987 7.218 11.232C6.42867 11.744 5.79933 12.4587 5.33 13.376C4.882 14.272 4.658 15.3067 4.658 16.48C4.658 17.3333 4.786 18.08 5.042 18.72C5.31933 19.3387 5.714 19.84 6.226 20.224C6.738 20.608 7.35667 20.8533 8.082 20.96ZM28.582 24.384C27.0247 24.384 25.6807 24 24.55 23.232C23.4193 22.464 22.5447 21.44 21.926 20.16C21.3287 18.8587 21.03 17.4293 21.03 15.872C21.03 14.2507 21.3713 12.8 22.054 11.52C22.758 10.2187 23.75 9.19467 25.03 8.448C26.3313 7.68 27.878 7.296 29.67 7.296C31.4407 7.296 32.9447 7.68 34.182 8.448C35.4407 9.19467 36.4007 10.2187 37.062 11.52C37.7447 12.8 38.086 14.2293 38.086 15.808V24H34.406V20.96H34.342C34.022 21.5573 33.606 22.1227 33.094 22.656C32.582 23.168 31.9527 23.584 31.206 23.904C30.4593 24.224 29.5847 24.384 28.582 24.384ZM29.574 21.248C30.534 21.248 31.366 21.0133 32.07 20.544C32.7953 20.0533 33.35 19.4027 33.734 18.592C34.1393 17.76 34.342 16.832 34.342 15.808C34.342 14.784 34.15 13.8773 33.766 13.088C33.382 12.2773 32.838 11.6373 32.134 11.168C31.43 10.6773 30.5873 10.432 29.606 10.432C28.582 10.432 27.7073 10.6773 26.982 11.168C26.2567 11.6373 25.702 12.2773 25.318 13.088C24.934 13.8987 24.742 14.816 24.742 15.84C24.742 16.8427 24.934 17.76 25.318 18.592C25.702 19.4027 26.246 20.0533 26.95 20.544C27.6753 21.0133 28.55 21.248 29.574 21.248ZM42.3613 24V12.32C42.3613 10.8693 42.7666 9.73867 43.5773 8.928C44.4093 8.096 45.5506 7.68 47.0013 7.68H50.9373V10.816H47.6733C47.1613 10.816 46.7559 10.9653 46.4573 11.264C46.1799 11.5627 46.0413 11.968 46.0413 12.48V24H42.3613ZM61.8413 7.296C63.1639 7.296 64.3479 7.50933 65.3933 7.936C66.4386 8.34133 67.3239 8.93867 68.0493 9.728C68.7959 10.5173 69.3613 11.456 69.7453 12.544C70.1506 13.6107 70.3533 14.7947 70.3533 16.096C70.3533 17.7387 70.0119 19.1893 69.3293 20.448C68.6679 21.6853 67.7399 22.656 66.5453 23.36C65.3719 24.0427 64.0066 24.384 62.4493 24.384C61.6813 24.384 60.9559 24.2667 60.2733 24.032C59.5906 23.7973 58.9719 23.4667 58.4173 23.04C57.8626 22.6133 57.4146 22.112 57.0733 21.536H57.0413V31.04H53.3613V16.032C53.3613 14.2187 53.7133 12.6613 54.4173 11.36C55.1426 10.0587 56.1453 9.056 57.4253 8.352C58.7053 7.648 60.1773 7.296 61.8413 7.296ZM61.8413 10.432C60.9239 10.432 60.1026 10.6667 59.3773 11.136C58.6519 11.584 58.0866 12.2133 57.6813 13.024C57.2759 13.8347 57.0733 14.7733 57.0733 15.84C57.0733 16.8853 57.2759 17.824 57.6813 18.656C58.0866 19.4667 58.6519 20.1067 59.3773 20.576C60.1026 21.024 60.9346 21.248 61.8733 21.248C62.8119 21.248 63.6333 21.0133 64.3373 20.544C65.0626 20.0747 65.6279 19.4347 66.0333 18.624C66.4386 17.8133 66.6413 16.8853 66.6413 15.84C66.6413 14.7733 66.4386 13.8347 66.0333 13.024C65.6279 12.2133 65.0626 11.584 64.3373 11.136C63.6119 10.6667 62.7799 10.432 61.8413 10.432ZM73.833 24V0.639999H77.513V9.312C78.1743 8.608 78.9423 8.096 79.817 7.776C80.6917 7.456 81.577 7.296 82.473 7.296C83.9663 7.296 85.2357 7.616 86.281 8.256C87.3477 8.87467 88.1583 9.73867 88.713 10.848C89.2677 11.936 89.545 13.184 89.545 14.592V24H85.897V14.624C85.897 13.792 85.6943 13.0667 85.289 12.448C84.905 11.808 84.393 11.3173 83.753 10.976C83.1343 10.6133 82.441 10.432 81.673 10.432C80.9477 10.432 80.265 10.6027 79.625 10.944C78.985 11.2853 78.473 11.7653 78.089 12.384C77.705 13.0027 77.513 13.7067 77.513 14.496V24H73.833Z" fill="white"/>
</svg>
