<svg width="90" height="32" viewBox="0 0 90 32" fill="none" xmlns="http://www.w3.org/2000/svg">
<path d="M10.7529 30.976C9.70754 30.976 8.81154 30.7733 8.06488 30.368C7.31821 29.9627 6.74221 29.4187 6.33688 28.736C5.95288 28.0533 5.76088 27.3173 5.76088 26.528C5.76088 26.08 5.81421 25.6107 5.92088 25.12C6.02754 24.6507 6.14488 24.2453 6.27288 23.904C5.35554 23.7333 4.48088 23.3387 3.64888 22.72C2.83821 22.08 2.17688 21.2373 1.66488 20.192C1.15288 19.1467 0.896875 17.9413 0.896875 16.576C0.896875 15.2533 1.12088 14.0267 1.56888 12.896C2.01688 11.7653 2.65688 10.784 3.48888 9.952C4.32088 9.12 5.30221 8.46933 6.43288 8C7.56354 7.53067 8.81154 7.296 10.1769 7.296C11.8835 7.296 13.3235 7.616 14.4969 8.256C15.6915 8.896 16.5982 9.792 17.2169 10.944C17.8355 12.096 18.1449 13.4507 18.1449 15.008C18.1449 15.3067 18.1235 15.6267 18.0809 15.968C18.0595 16.288 18.0275 16.6187 17.9849 16.96L16.6409 25.376C16.4489 26.592 16.0862 27.616 15.5529 28.448C15.0195 29.28 14.3475 29.9093 13.5369 30.336C12.7262 30.7627 11.7982 30.976 10.7529 30.976ZM10.8169 27.296C11.2862 27.296 11.6169 27.136 11.8089 26.816C12.0009 26.5173 12.1395 26.1013 12.2249 25.568L13.0889 20.064C12.6835 20.4053 12.3102 20.768 11.9689 21.152C11.6489 21.5147 11.3609 21.8987 11.1049 22.304C10.8489 22.688 10.6355 23.0827 10.4649 23.488C10.2942 23.8933 10.1555 24.2987 10.0489 24.704C9.96354 25.1093 9.92088 25.5147 9.92088 25.92C9.92088 26.304 9.98488 26.624 10.1129 26.88C10.2409 27.1573 10.4755 27.296 10.8169 27.296ZM8.44888 20.416C9.04621 19.7333 9.77154 19.0507 10.6249 18.368C11.4782 17.6853 12.4915 17.0453 13.6649 16.448L13.7929 15.584C13.8142 15.4133 13.8249 15.264 13.8249 15.136C13.8462 14.9867 13.8569 14.8373 13.8569 14.688C13.8569 13.92 13.6969 13.2693 13.3769 12.736C13.0782 12.1813 12.6409 11.7653 12.0649 11.488C11.4889 11.1893 10.8062 11.04 10.0169 11.04C9.09954 11.04 8.28888 11.2747 7.58488 11.744C6.90221 12.192 6.35821 12.8213 5.95288 13.632C5.56888 14.4427 5.37688 15.392 5.37688 16.48C5.37688 17.248 5.48354 17.9093 5.69688 18.464C5.93154 19.0187 6.27288 19.456 6.72088 19.776C7.19021 20.096 7.76621 20.3093 8.44888 20.416ZM28.0589 24.384C26.5655 24.384 25.2642 24 24.1549 23.232C23.0455 22.464 22.1815 21.44 21.5629 20.16C20.9655 18.8587 20.6669 17.4293 20.6669 15.872C20.6669 14.272 21.0082 12.8213 21.6909 11.52C22.3949 10.2187 23.3975 9.19467 24.6989 8.448C26.0002 7.68 27.5575 7.296 29.3709 7.296C31.2055 7.296 32.7522 7.68 34.0109 8.448C35.2695 9.216 36.2295 10.2507 36.8909 11.552C37.5522 12.8533 37.8829 14.2933 37.8829 15.872V24H33.4989V21.28H33.4349C33.1149 21.856 32.7095 22.3787 32.2189 22.848C31.7495 23.3173 31.1735 23.6907 30.4909 23.968C29.8082 24.2453 28.9975 24.384 28.0589 24.384ZM29.3069 20.64C30.1602 20.64 30.8962 20.4267 31.5149 20C32.1335 19.5733 32.6029 18.9973 32.9229 18.272C33.2642 17.5253 33.4349 16.704 33.4349 15.808C33.4349 14.912 33.2642 14.112 32.9229 13.408C32.6029 12.6827 32.1335 12.1067 31.5149 11.68C30.8962 11.2533 30.1602 11.04 29.3069 11.04C28.4322 11.04 27.6749 11.2533 27.0349 11.68C26.4162 12.1067 25.9362 12.6827 25.5949 13.408C25.2749 14.112 25.1149 14.912 25.1149 15.808C25.1149 16.704 25.2749 17.5253 25.5949 18.272C25.9362 18.9973 26.4162 19.5733 27.0349 20C27.6749 20.4267 28.4322 20.64 29.3069 20.64ZM41.8731 24V12.32C41.8731 10.8693 42.2785 9.73867 43.0891 8.928C43.9211 8.096 45.0625 7.68 46.5131 7.68H51.0251V11.424H47.2811C47.0038 11.424 46.7585 11.52 46.5451 11.712C46.3531 11.904 46.2571 12.1493 46.2571 12.448V24H41.8731ZM61.8874 7.296C63.274 7.296 64.5007 7.52 65.5674 7.968C66.634 8.39467 67.53 9.01333 68.2554 9.824C68.9807 10.6133 69.5354 11.552 69.9194 12.64C70.3034 13.7067 70.4954 14.88 70.4954 16.16C70.4954 17.76 70.1647 19.1787 69.5034 20.416C68.8634 21.6533 67.9567 22.624 66.7834 23.328C65.61 24.032 64.2234 24.384 62.6234 24.384C61.9407 24.384 61.2794 24.288 60.6394 24.096C60.0207 23.904 59.4554 23.6267 58.9434 23.264C58.4527 22.9013 58.0367 22.4747 57.6954 21.984H57.6634V31.04H53.2794V16.16C53.2794 14.3467 53.6314 12.7787 54.3354 11.456C55.0394 10.1333 56.0314 9.10933 57.3114 8.384C58.6127 7.65867 60.138 7.296 61.8874 7.296ZM61.8874 11.04C61.034 11.04 60.2874 11.2533 59.6474 11.68C59.0287 12.1067 58.5487 12.6827 58.2074 13.408C57.8874 14.1333 57.7274 14.944 57.7274 15.84C57.7274 16.736 57.8874 17.5467 58.2074 18.272C58.5487 18.9973 59.0287 19.5733 59.6474 20C60.2874 20.4267 61.034 20.64 61.8874 20.64C62.762 20.64 63.5087 20.4267 64.1274 20C64.746 19.5733 65.2154 18.9973 65.5354 18.272C65.8767 17.5467 66.0474 16.736 66.0474 15.84C66.0474 14.944 65.8767 14.1333 65.5354 13.408C65.2154 12.6827 64.746 12.1067 64.1274 11.68C63.5087 11.2533 62.762 11.04 61.8874 11.04ZM73.6894 24V0.639999H78.0734V8.832C78.756 8.27733 79.492 7.88267 80.2814 7.648C81.0707 7.41333 81.8494 7.296 82.6174 7.296C84.196 7.296 85.4974 7.62667 86.5214 8.288C87.5667 8.94933 88.3454 9.83467 88.8574 10.944C89.3694 12.0533 89.6254 13.28 89.6254 14.624V24H85.2414V14.624C85.2414 13.9627 85.0814 13.3653 84.7614 12.832C84.4414 12.2773 84.004 11.84 83.4494 11.52C82.916 11.2 82.3187 11.04 81.6574 11.04C81.0174 11.04 80.42 11.2 79.8654 11.52C79.332 11.8187 78.8947 12.2347 78.5534 12.768C78.2334 13.28 78.0734 13.856 78.0734 14.496V24H73.6894Z" fill="#3230DF"/>
</svg>
