<svg xmlns="http://www.w3.org/2000/svg" width="32" height="32" viewBox="0 0 24 24" fill="none" stroke="none" color="#61DBFB" stroke-width="2">
	<path d="M20 20.0001C17.7909 22.2092 12.4183 20.4183 8 16.0001C3.58171 11.5818 1.79084 6.20916 3.99999 4.00001C6.20913 1.79087 11.5817 3.58173 16 8.00003C20.4183 12.4183 22.2092 17.7909 20 20.0001Z" stroke="#61DBFB" stroke-width="1" />
	<path d="M3.99994 20C1.79079 17.7909 3.58166 12.4183 7.99995 8C12.4182 3.58171 17.7908 1.79084 20 3.99999C22.2091 6.20913 20.4183 11.5817 16 16C11.5817 20.4183 6.20908 22.2092 3.99994 20Z" stroke="#61DBFB" stroke-width="1" />
	<path d="M14 12C14 13.1046 13.1046 14 12 14C10.8954 14 10 13.1046 10 12C10 10.8954 10.8954 10 12 10C13.1046 10 14 10.8954 14 12Z" stroke="#61DBFB" stroke-width="1" />
</svg>
