<svg xmlns="http://www.w3.org/2000/svg" width="32" height="32" viewBox="0 0 24 24" fill="none" stroke="none" color="#30d158" stroke-width="1">
    <path opacity="0.1" d="M17.7634 10.7614L17.8704 10.5979C17.9261 10.5129 17.8651 10.4 17.7634 10.4H13.5C13.3817 10.4 13.2857 10.3041 13.2857 10.1857V4.23047V4.21257C13.2857 4.14957 13.2038 4.12513 13.1693 4.17784L7.18868 13.3118L7.10336 13.4421C7.05895 13.51 7.10761 13.6 7.18868 13.6H11.4488H11.5027C11.6196 13.6 11.7143 13.6947 11.7143 13.8116V19.6027C11.7143 19.7205 11.8683 19.7647 11.9328 19.6662L17.7634 10.7614Z" fill="#30d158" />
	<path d="M17.7634 10.7614L17.8704 10.5979C17.9261 10.5129 17.8651 10.4 17.7634 10.4H13.5C13.3817 10.4 13.2857 10.3041 13.2857 10.1857V4.23047V4.21257C13.2857 4.14957 13.2038 4.12513 13.1693 4.17784L7.18868 13.3118L7.10336 13.4421C7.05895 13.51 7.10761 13.6 7.18868 13.6H11.4488H11.5027C11.6196 13.6 11.7143 13.6947 11.7143 13.8116V19.6027C11.7143 19.7205 11.8683 19.7647 11.9328 19.6662L17.7634 10.7614Z" stroke="#30d158" stroke-width="1" stroke-linejoin="round" />
</svg>
